<?xml version="1.0" encoding="UTF-8"?>
<svg id="Laag_2" data-name="Laag 2" xmlns="http://www.w3.org/2000/svg" viewBox="0 0 481.82 197.57">
  <defs>
    <style>
      .cls-1 {
        fill: #fcce79;
      }

      .cls-1, .cls-2, .cls-3, .cls-4, .cls-5, .cls-6, .cls-7, .cls-8, .cls-9, .cls-10, .cls-11 {
        stroke-width: 0px;
      }

      .cls-2 {
        fill: none;
      }

      .cls-3 {
        fill: #f3f3f3;
      }

      .cls-4 {
        fill: #c9c9cb;
      }

      .cls-5 {
        fill: #f3f5f7;
      }

      .cls-6 {
        fill: #e5e7e8;
      }

      .cls-7 {
        fill: #b2b2b2;
      }

      .cls-8 {
        fill: #e9ebec;
      }

      .cls-9 {
        fill: #a5a4a4;
      }

      .cls-10 {
        fill: #eceeef;
      }

      .cls-11 {
        fill: #c6c3c4;
      }
    </style>
  </defs>
  <g id="Laag_3" data-name="Laag 3">
    <circle class="cls-1" cx="184.42" cy="94.28" r="61.82"/>
  </g>
  <g>
    <path class="cls-4" d="M273.42,1.21c0,4.17-1.39,8.1-3.81,11.26-.24.34-.51.67-.8.99-1.87,2.15-4.24,3.88-6.96,4.98-1.4.57-2.9.98-4.46,1.2-10.18,1.43-19.6-5.66-21.03-15.84-.12-.87-.18-1.73-.18-2.6h37.24Z"/>
    <path class="cls-6" d="M308.25,17.34c-.21.87-.47,1.72-.78,2.56-2.76,7.63-9.24,13.6-17.53,15.36-.55.12-1.1.22-1.67.3-5.35.75-10.55-.34-14.95-2.82-2.87-1.58-5.39-3.77-7.41-6.39-1.15-1.49-2.14-3.14-2.94-4.89-.43-.97-.81-1.97-1.11-3.02-.36-1.17-.62-2.39-.8-3.65-.56-4.01-.13-7.92,1.12-11.47.24-.72.52-1.42.84-2.11h43.67c.3.64.56,1.29.8,1.96.57,1.56.98,3.22,1.22,4.93.45,3.18.27,6.3-.45,9.24h0Z"/>
    <circle id="Ellipse_3" data-name="Ellipse 3" class="cls-10" cx="197.38" cy="62.17" r="32.58"/>
    <ellipse id="Ellipse_4" data-name="Ellipse 4" class="cls-10" cx="252.43" cy="69.72" rx="42.11" ry="42.61" transform="translate(-8.94 86.03) rotate(-19.01)"/>
    <path class="cls-9" d="M199.03,0c-.06.18-.11.36-.16.54-.07-.06-.13-.11-.2-.15.12-.13.24-.27.36-.39Z"/>
    <path class="cls-9" d="M229.7,28.85c-2.26,2.43-5.15,4.37-8.52,5.53-1.45.5-2.93.83-4.39,1-.25.03-.5.06-.75.08h-.01c-3.34.28-6.63-.26-9.64-1.48-2.45-1-4.72-2.46-6.64-4.31-1.45-1.39-2.73-3.01-3.74-4.82-.63-1.1-1.16-2.27-1.59-3.52-.26-.75-.47-1.51-.64-2.27-.38-1.67-.54-3.36-.5-5.02.06-3.27.89-6.45,2.38-9.3.64-1.24,1.41-2.42,2.3-3.53h32.71c1.51,1.85,2.73,4.01,3.55,6.39,2.63,7.64.62,15.73-4.53,21.24h0Z"/>
    <circle id="Ellipse_6" data-name="Ellipse 6" class="cls-10" cx="210.53" cy="46.51" r="26.07" transform="translate(141.32 250.7) rotate(-83.74)"/>
    <path class="cls-6" d="M326.56,1.21c-.14,7.63-4.77,14.4-11.62,17.24-.88.38-1.8.68-2.77.91-.43.11-.86.2-1.3.28h0c-.18.03-.35.06-.53.08-.96.14-1.92.19-2.87.17-4.8-.06-9.27-1.96-12.65-5.14-1.35-1.27-2.53-2.76-3.49-4.4-1.2-2.09-2.03-4.46-2.39-7-.1-.72-.16-1.43-.18-2.14h37.81Z"/>
    <circle id="Ellipse_12" data-name="Ellipse 12" class="cls-8" cx="267.89" cy="110.77" r="32.56"/>
    <ellipse id="Ellipse_7" data-name="Ellipse 7" class="cls-10" cx="287.98" cy="43.7" rx="33.09" ry="33.59" transform="translate(1.47 96.19) rotate(-19.01)"/>
    <ellipse id="Ellipse_9" data-name="Ellipse 9" class="cls-8" cx="320.48" cy="128.68" rx="42.08" ry="42.58" transform="translate(-14.79 45.85) rotate(-8)"/>
    <path class="cls-9" d="M199.03,0c-.06.18-.11.36-.16.54-.07-.06-.13-.11-.2-.15.12-.13.24-.27.36-.39Z"/>
    <path class="cls-10" d="M273.31,32.74v.15c.07,11.45-4.22,22.43-11.8,30.71-4.82,5.26-10.97,9.43-18.18,11.91-5.76,1.98-11.65,2.71-17.38,2.31-5.37-.36-10.59-1.7-15.43-3.91-1.03-.46-2.03-.97-3.04-1.52,0-.01-.01-.01-.01-.01h-.01c-2.15-1.18-4.22-2.54-6.16-4.08-6.62-5.19-11.89-12.32-14.85-20.91-.65-1.88-1.16-3.78-1.55-5.67-.64-3.09-.95-6.19-.94-9.26,0-1.19.05-2.38.15-3.57.33-4.08,1.21-8.06,2.59-11.83,2.05-5.63,5.21-10.81,9.31-15.21.2-.22.4-.44.62-.65h63.59c.69.68,1.34,1.38,1.96,2.11,2.62,3.01,4.87,6.4,6.64,10.14.21.42.4.85.59,1.28.11.26.23.51.32.77h0c.4.92.75,1.85,1.08,2.81,1.64,4.77,2.45,9.63,2.5,14.42h0Z"/>
    <circle id="Ellipse_13" data-name="Ellipse 13" class="cls-4" cx="293.64" cy="67.19" r="21.04"/>
    <path id="Ellipse_14" data-name="Ellipse 14" class="cls-10" d="M280.16,72.11c14.25-2,27.42,7.92,29.42,22.17s-7.92,27.42-22.17,29.42"/>
    <ellipse id="Ellipse_10" data-name="Ellipse 10" class="cls-8" cx="360.34" cy="109.92" rx="33.07" ry="33.57" transform="translate(-11.79 51.22) rotate(-8)"/>
    <ellipse id="Ellipse_11" data-name="Ellipse 11" class="cls-8" cx="304.14" cy="87.97" rx="44.59" ry="45.09" transform="translate(-9.28 43.18) rotate(-8)"/>
    <path class="cls-5" d="M332.51,1.21c5.02,1.65,9.55,4.51,13.21,8.27,1.74,1.79,3.29,3.8,4.59,5.97,2.17,3.63,3.67,7.74,4.29,12.17.6,4.3.34,8.52-.67,12.48-1.19,4.76-3.45,9.15-6.53,12.86-2.32,2.8-5.11,5.21-8.28,7.11-1.41.85-2.9,1.6-4.45,2.22-2.44,1-5.06,1.72-7.8,2.1-4.2.59-8.32.35-12.19-.6h0c-.1-.02-.19-.04-.28-.07-9.35-2.35-17.27-8.8-21.44-17.58-.27-.54-.51-1.1-.74-1.66-1-2.44-1.72-5.06-2.1-7.81-.07-.48-.12-.95-.16-1.42-.73-7.44,1.13-14.59,4.89-20.5.69-1.12,1.46-2.18,2.31-3.21,2.8-3.44,6.3-6.31,10.34-8.38,1.5-.77,3.08-1.43,4.72-1.96h20.31-.02Z"/>
    <path class="cls-3" d="M138.98,41.07c-1.65.88-3.42,1.63-5.26,2.23-.11.04-.23.07-.34.1-17,5.35-35.18-4.01-40.7-21.01-2.33-7.18-2.03-14.59.37-21.18h61.2c.13.35.25.7.37,1.06,4.96,15.26-1.95,31.52-15.64,38.8Z"/>
    <ellipse id="Ellipse_15" data-name="Ellipse 15" class="cls-5" cx="374.94" cy="50.05" rx="42.08" ry="42.58" transform="translate(-3.32 52.67) rotate(-8)"/>
    <path class="cls-3" d="M216.8,35.38c0,.21,0,.41-.01.62-.02,1.99-.18,3.98-.49,5.92-1.57,10.33-6.9,19.79-15,26.39-.69.58-1.4,1.12-2.14,1.64-3.38,2.41-7.17,4.36-11.33,5.71-6.45,2.09-13.06,2.54-19.35,1.53-15.26-2.4-28.7-13.2-33.84-29.03-.51-1.58-.93-3.18-1.25-4.77s-.55-3.18-.69-4.76c-1.3-14.59,4.99-28.74,16.35-37.43h50.75c5.24,3.95,9.61,9.16,12.63,15.35.65,1.33,1.24,2.71,1.75,4.13.18.48.35.97.51,1.47,1.42,4.39,2.1,8.84,2.11,13.22h0Z"/>
    <path class="cls-7" d="M332.51,1.21h32.39c-1.26,1.68-2.77,3.18-4.49,4.41-2.69,1.95-5.88,3.29-9.4,3.79-1.8.25-3.58.27-5.3.07-5.8-.65-11.01-3.71-14.45-8.27h1.25Z"/>
    <path class="cls-5" d="M332.51,1.21h24.49c1.28,1.33,2.43,2.81,3.42,4.41.74,1.19,1.38,2.45,1.92,3.77.81,1.97,1.39,4.08,1.7,6.28,1.36,9.71-2.82,18.92-10.12,24.44-3.42,2.58-7.51,4.35-12.05,4.99-2.99.42-5.93.31-8.73-.26-.97-.18-1.91-.43-2.85-.73h0c-3.59-1.15-6.85-3.07-9.61-5.58-4.33-3.93-7.35-9.35-8.24-15.6-.09-.61-.15-1.23-.19-1.84h0c-.05-.58-.07-1.15-.07-1.71,0-3.38.63-6.63,1.82-9.64,1.25-3.18,3.13-6.07,5.49-8.52h13.03Z"/>
    <path class="cls-5" d="M419.47,64.54c-1.68.24-3.36.34-5.01.31-12.68-.16-24.06-7.73-29.44-19.08-1.45-3.04-2.47-6.35-2.97-9.87-1.35-9.65,1.47-18.91,7.09-25.88,2.93-3.65,6.61-6.67,10.87-8.81h29.28c9.52,4.75,16.63,14.05,18.25,25.49,2.58,18.36-9.99,35.3-28.08,37.84h.01Z"/>
    <path class="cls-2" d="M198.87.54c-.07-.06-.13-.11-.2-.15.12-.13.24-.27.36-.39-.06.18-.11.36-.16.54Z"/>
    <path class="cls-2" d="M402.43,1.21h-2.41c.72-.36,1.45-.7,2.21-1,.07.33.14.66.2,1Z"/>
    <path class="cls-5" d="M332.51,1.21h69.93c.11.64.22,1.28.31,1.93.71,5.05.56,10.01-.32,14.75-2.11,11.24-8.41,21.19-17.4,27.88-5.74,4.25-12.59,7.17-20.15,8.24-6.02.84-11.94.43-17.48-1.04-5.19-1.38-10.05-3.69-14.38-6.76-.93-.67-1.84-1.36-2.72-2.09h0c-7.63-6.36-13.21-15.26-15.34-25.65-.2-.95-.36-1.91-.5-2.9-.27-1.96-.42-3.91-.44-5.83-.04-2.9.2-5.74.69-8.52h17.82,0Z"/>
    <path class="cls-3" d="M196.04,1.21c0,.22-.02.44-.04.65-.07.96-.18,1.92-.33,2.88-.46,3.2-1.26,6.31-2.38,9.3-.57,1.54-1.23,3.06-1.97,4.52-1.89,3.77-4.32,7.25-7.2,10.35-4.96,5.33-11.29,9.5-18.68,11.89-8.91,2.9-18.08,2.81-26.44.27-2.15-.64-4.26-1.45-6.29-2.42-10.81-5.14-19.6-14.6-23.61-26.95-1.13-3.48-1.82-6.99-2.09-10.48h89.05-.02Z"/>
    <path class="cls-3" d="M269.61,12.47c-.04.76-.11,1.52-.21,2.27-.04.37-.09.74-.16,1.1-.56,3.69-1.7,7.22-3.35,10.5-.44.9-.93,1.78-1.45,2.65-2.41,3.97-5.57,7.46-9.35,10.26h0c-4.19,3.13-9.13,5.37-14.6,6.43-1.3.25-2.6.43-3.89.54-3.87.33-7.66.02-11.28-.84h0c-2.12-.5-4.18-1.19-6.15-2.05-.97-.43-1.93-.9-2.86-1.41-3.73-2.03-7.08-4.73-9.9-7.95-1.04-1.2-2.01-2.47-2.9-3.81-1.51-2.28-2.78-4.76-3.74-7.4-.4-1.07-.74-2.17-1.03-3.3-.2-.75-.38-1.52-.53-2.3-1.06-5.47-.83-10.89.49-15.95h69.82c.19.71.36,1.44.5,2.18.59,3.06.78,6.1.6,9.08h.01Z"/>
    <path class="cls-11" d="M199.03,0c-.06.18-.11.36-.16.54-.07-.06-.13-.11-.2-.15.12-.13.24-.27.36-.39Z"/>
    <path class="cls-3" d="M228.2,1.21c-3.27,6.68-8.79,12.18-15.78,15.35-2.27,1.02-4.7,1.81-7.25,2.3-2.16.42-4.32.62-6.43.6-1.67-.01-3.33-.15-4.95-.41-.84-.13-1.66-.3-2.47-.5-1.58-.38-3.13-.87-4.62-1.48-7.31-2.99-13.45-8.58-16.99-15.86h58.51-.02Z"/>
  </g>
</svg>