<?xml version="1.0" encoding="UTF-8"?>
<svg id="Laag_2" data-name="Laag 2" xmlns="http://www.w3.org/2000/svg" viewBox="0 0 35.52 35.52">
  <defs>
    <style>
      .cls-1 {
        fill: #3f240e;
      }

      .cls-1, .cls-2 {
        opacity: .5;
        stroke-width: 0px;
      }

      .cls-2 {
        fill: none;
      }
    </style>
  </defs>
  <g id="Laag_1-2" data-name="Laag 1">
    <circle class="cls-2" cx="17.76" cy="17.76" r="17.76"/>
    <path class="cls-1" d="M5.02,17.01c.69-.02.66,1.09-.1.97-.53-.09-.48-.96.1-.97Z"/>
    <path class="cls-1" d="M3.7,13.01c.61-.11.74.73.27.88-.68.21-.81-.78-.27-.88Z"/>
    <path class="cls-1" d="M2.2,15.42c.17.67-.82.86-.97.27-.17-.68.82-.85.97-.27Z"/>
    <path class="cls-1" d="M3.42,23.93c.1.68-1.01.79-.98.02.02-.53.89-.59.98-.02Z"/>
    <path class="cls-1" d="M3.64,19.53c.35-.59,1.19-.03.88.48-.36.6-1.18.02-.88-.48Z"/>
    <path class="cls-1" d="M7.82,18.63c.34-.62,1.16-.06.86.45-.34.58-1.13.03-.86-.45Z"/>
    <path class="cls-1" d="M3.14,20.77c.61.27.15,1.14-.39.88-.6-.29-.13-1.11.39-.88Z"/>
    <path class="cls-1" d="M5.75,14.61c.07.57-.81.72-.94.17-.16-.66.86-.8.94-.17Z"/>
    <path class="cls-1" d="M3.89,15.06c.22.73-.92.87-.92.15,0-.53.79-.59.92-.15Z"/>
    <path class="cls-1" d="M7.24,22.13c.18.6-.63.83-.84.38-.29-.65.68-.89.84-.38Z"/>
    <path class="cls-1" d="M29.38,15.51c-.45-.52.44-1.2.82-.54.27.46-.44.97-.82.54Z"/>
    <path class="cls-1" d="M32.34,24.65c-.36-.44.31-1.04.7-.64.48.48-.31,1.14-.7.64Z"/>
    <path class="cls-1" d="M33.68,23.28c-.57-.5.32-1.22.7-.62.29.45-.35.92-.7.62Z"/>
    <path class="cls-1" d="M27.09,19.06c-.47-.41.1-1.04.51-.76.59.4-.1,1.12-.51.76Z"/>
    <path class="cls-1" d="M34,17.81c-.52-.48.21-1.14.63-.74.48.46-.23,1.1-.63.74Z"/>
    <path class="cls-1" d="M29.9,18.7c.41-.55,1.18.1.82.58-.42.56-1.18-.11-.82-.58Z"/>
    <path class="cls-1" d="M32.2,15c-.68.1-.77-.9-.18-.99.7-.1.76.9.18.99Z"/>
    <path class="cls-1" d="M28.87,12.32c-.7.12-.77-.86-.2-.95.66-.1.73.85.2.95Z"/>
    <path class="cls-1" d="M33.48,14.61c-.17-.65.79-.83.93-.25.15.65-.78.79-.93.25Z"/>
    <path class="cls-1" d="M27.05,16.45c.4-.41,1.07.18.73.62-.41.53-1.16-.17-.73-.62Z"/>
    <path class="cls-1" d="M28.57,17.62c.43-.63,1.25.17.7.62-.41.34-.96-.24-.7-.62Z"/>
    <path class="cls-1" d="M31.97,10.57c.35-.52,1.04-.03.82.41-.32.64-1.12.03-.82-.41Z"/>
    <path class="cls-1" d="M34.16,18.27c.41-.58,1.16.07.81.54-.4.54-1.12-.09-.81-.54Z"/>
    <path class="cls-1" d="M12.65,29.14c-.79.16-.9-1.1-.06-1.07.58.02.66.95.06,1.07Z"/>
    <path class="cls-1" d="M10.32,28.51c-.65.16-.81-.82-.22-.93.65-.13.77.8.22.93Z"/>
    <path class="cls-1" d="M8.51,26.68c-.62.16-.8-.74-.28-.89.67-.18.8.76.28.89Z"/>
    <path class="cls-1" d="M4.69,29.69c-.18-.66.91-.9.97-.13.04.53-.82.69-.97.13Z"/>
    <path class="cls-1" d="M13.65,34.09c-.23-.63.71-.9.9-.34.21.63-.7.86-.9.34Z"/>
    <path class="cls-1" d="M15.24,33.06c-.23-.6.64-.88.85-.38.26.64-.66.88-.85.38Z"/>
    <path class="cls-1" d="M9.78,32.18c-.27-.65.68-.94.89-.39.24.63-.68.9-.89.39Z"/>
    <path class="cls-1" d="M16.09,11.08c-.2.78-1.38.34-.99-.4.27-.52,1.14-.19.99.4Z"/>
    <path class="cls-1" d="M21.83,14.05c-.14.67-1.11.42-.99-.17.14-.69,1.11-.41.99.17Z"/>
    <path class="cls-1" d="M19.24,22.25c-.2.66-1.25.28-.89-.4.25-.47,1.06-.15.89.4Z"/>
    <path class="cls-1" d="M14.53,12.91c-.14.65-1.08.39-.94-.19.16-.64,1.05-.36.94.19Z"/>
    <path class="cls-1" d="M25.37,14.86c-.18.54-1.04.3-.92-.25.14-.66,1.12-.35.92.25Z"/>
    <path class="cls-1" d="M23.5,14.45c-.12.75-1.2.39-.9-.26.23-.48.97-.19.9.26Z"/>
    <path class="cls-1" d="M12.1,13.78c-.13.63-1.01.41-.92-.13.12-.68,1.03-.4.92.13Z"/>
    <path class="cls-1" d="M23.46,22.28c-.1.62-.93.47-.92-.02.02-.71,1-.51.92.02Z"/>
    <path class="cls-1" d="M18.17,16.27c-.12.7-1.07.43-.96-.14.13-.66,1.05-.4.96.14Z"/>
    <path class="cls-1" d="M23.9,14.04c-.8-.1-.51-1.32.27-1.04.55.2.32,1.11-.27,1.04Z"/>
    <path class="cls-1" d="M21.65,20.09c-.68-.05-.55-1.05.05-1,.7.06.54,1.05-.05,1Z"/>
    <path class="cls-1" d="M13.2,18.52c-.67-.12-.42-1.21.29-.93.5.19.27,1.03-.29.93Z"/>
    <path class="cls-1" d="M21.9,12.71c-.67-.06-.51-1.03.08-.96.66.08.48,1-.08.96Z"/>
    <path class="cls-1" d="M17.3,20.13c.45.52-.35,1.14-.74.68-.46-.53.36-1.13.74-.68Z"/>
    <path class="cls-1" d="M16.81,24.38c.48.52-.32,1.11-.7.67-.44-.51.33-1.08.7-.67Z"/>
    <path class="cls-1" d="M16.28,19.26c-.45.49-1.13-.22-.71-.65.47-.47,1.09.24.71.65Z"/>
    <path class="cls-1" d="M21.28,23.71c-.56-.11-.42-1,.14-.95.67.06.48,1.07-.14.95Z"/>
    <path class="cls-1" d="M21.46,21.8c-.76-.02-.53-1.15.15-.92.51.17.31.94-.15.92Z"/>
    <path class="cls-1" d="M20.75,10.41c-.64-.05-.53-.96.01-.93.69.03.52.97-.01.93Z"/>
    <path class="cls-1" d="M13.68,22.71c-.62-.02-.58-.87-.09-.91.71-.07.63.93.09.91Z"/>
    <path class="cls-1" d="M19.01,16.73c-.71-.04-.56-1.01.02-.97.67.05.52,1-.02.97Z"/>
    <path class="cls-1" d="M29.18,27.55c-.68.42-1.23-.71-.44-.98.55-.19.95.66.44.98Z"/>
    <path class="cls-1" d="M26.78,27.77c-.55.38-1.05-.48-.54-.79.56-.35,1,.48.54.79Z"/>
    <path class="cls-1" d="M24.44,26.7c-.53.37-1.01-.41-.57-.73.56-.41,1.01.43.57.73Z"/>
    <path class="cls-1" d="M27.06,32.71c-.57.42-1.07-.44-.59-.77.55-.38,1.03.45.59.77Z"/>
    <path class="cls-1" d="M21.93,30.87c-.4-.56.53-1.16.86-.47.23.48-.52.93-.86.47Z"/>
    <path class="cls-1" d="M23.63,33.55c-.67.04-.65-.95-.06-.96.66-.01.62.93.06.96Z"/>
    <path class="cls-1" d="M19.36,34.22c-.43-.45.19-1.03.57-.72.56.45-.2,1.11-.57.72Z"/>
    <path class="cls-1" d="M8.9,12.46c-.57.39-1.09-.47-.59-.81.58-.39,1.08.48.59.81Z"/>
    <path class="cls-1" d="M8.88,7.51c-.51.26-.95-.51-.49-.82.56-.37,1.05.53.49.82Z"/>
    <path class="cls-1" d="M7.82,5.91c-.61.46-1.13-.56-.46-.81.5-.19.83.53.46.81Z"/>
    <path class="cls-1" d="M2.34,11.51c-.5.38-1-.31-.64-.65.51-.5,1.07.33.64.65Z"/>
    <path class="cls-1" d="M8.39,5.9c-.5-.63.56-1.3.92-.55.25.52-.54,1.02-.92.55Z"/>
    <path class="cls-1" d="M3.56,9.68c-.45-.52.34-1.14.73-.69.46.53-.34,1.13-.73.69Z"/>
    <path class="cls-1" d="M7.87,3.55c-.44-.5.35-1.1.72-.63.42.52-.35,1.06-.72.63Z"/>
    <path class="cls-1" d="M20.99,2.2c.01.69-1.1.65-.97-.1.09-.53.96-.47.97.1Z"/>
    <path class="cls-1" d="M18.48.8c.59.35.02,1.19-.49.88-.6-.36-.02-1.18.49-.88Z"/>
    <path class="cls-1" d="M19.35,4.99c.62.35.05,1.16-.45.86-.58-.35-.02-1.13.45-.86Z"/>
    <path class="cls-1" d="M23.38,2.95c-.57.07-.71-.82-.17-.94.66-.15.79.87.17.94Z"/>
    <path class="cls-1" d="M15.85,4.38c-.6.18-.82-.64-.37-.84.65-.29.89.69.37.84Z"/>
    <path class="cls-1" d="M32.06,8.07c-.42.54-1.26-.19-.69-.7.4-.35,1.04.24.69.7Z"/>
    <path class="cls-1" d="M31,5.4c.23.65-.73.94-.93.37-.23-.66.73-.92.93-.37Z"/>
    <path class="cls-1" d="M29.03,9.2c.26.66-.69.93-.89.38-.23-.63.69-.89.89-.38Z"/>
    <path class="cls-1" d="M26.7,6.51c-.57-.24-.23-1.02.24-.88.69.19.26,1.09-.24.88Z"/>
  </g>
</svg>