<?xml version="1.0" encoding="UTF-8"?>
<svg id="Laag_2" data-name="Laag 2" xmlns="http://www.w3.org/2000/svg" viewBox="0 0 400 342.48">
  <defs>
    <style>
      .cls-1 {
        fill: #ceeaf4;
        stroke-width: 0px;
      }
    </style>
  </defs>
  <path class="cls-1" d="M169.18,92.37c1.2-2.15,4.13-9.69,10.95-5.96,5.45,2.98,4.33,7.44,3.17,12.33-.66,2.77-3.71,10.17-4.12,12.1-4.45,5.4,3.29,10.46,4.36,15.8.76.47,1.22-.88,2.84,1.04q6.86,12.89,13.73,25.78.4-.13.8-.26c4.02-8.57,7.36-17.46,11.08-26.17,1.27-.12,1.95.15,3.11.51q3.68-6.68,7.36-13.36c-1.77-5.3-4.12-10.93-5.41-16.34-.35-1.46-1.08-2.95-1.03-4.5.26-6.99,11.65-10.01,14.91.09.72.02,6.22-11.47,6.58-12.73,1.88-2.32,4.74-9.72,6.66-11.26,6.47-5.2,14.04-.36,13.77,6.75-.09,2.35-2.56,6.72-3.61,8.99-2.56,5.54-5.84,10.8-8.54,16.28,6.56-2.11,12.97,3.16,11.61,9.28-1.08,4.87-5.83,5.01-9.77,6.05-2.57.68-12.23,2.12-13.51,3.08q-3.88,6.32-7.76,12.64-.22,1.44-.45,2.89-7.83,12.02-15.66,24.04c6.4-.61,13.28-.02,19.4-1.3q5.97.41,11.94.82,7.96.61,15.92,1.22c2.08-2.61,3.99-5.54,6.22-8.01,1.2-1.32,4.78-5.6,5.44-6.06,8.4-5.97,16.9,5.31,8.83,14.04,5.79.14,11.69.26,17.45.92,5.8.67,13.26.09,14.96,7.21.25,1.05-.29,4.64-.83,5.55-4.12,6.81-13.45,2.78-19.82,3.23-4.13-.93-8.56-.6-12.71-1.52,7.59,9.85-2.9,16.23-8.29,12.37-.93-.66-3.09-3.58-4.28-4.94-2.85-3.26-5.39-6.92-8.06-10.34-1.98-.06-14.99-1.16-15.68-.79-.58.31-.9,1.67-1.5,2.35-3.04.82-5.31-.57-8.27-1-6.77-.97-14.02-1.8-20.6-2.17,5.21,8.72,10.64,17.45,14.94,26.6-2.6,1.94,3.43,7.94,5.6,12.66.41.28,1.59-.39,1.67-.37,3.69.88,8.75,1.94,12.19,2.94,5.44,1.57,15.85,3.76,11.9,12.13-3.55,7.51-11.88,2.22-11.93,3.88,2.88,5.34,6.07,10.52,8.92,15.88,2.67,5.01,9.47,13.71,2.21,18.33-11.85,7.53-19.39-20.25-24.85-26.49-.53-.1-.42,1.14-.46,1.2-2.43,4.13-4.9,9.63-11.24,6.12-7.07-3.91-3.07-11.13-.84-18.91.84-2.91,2.08-5.78,3.03-8.67q-3.29-5.86-6.59-11.73c-12.78,1-9.78-10.14-14.37-22.22.34-2.36-.61-3.9-.81-6.13-.23-.14-.63.1-.8.26-1.37,1.3-11,25.74-12.08,26.73-.07.06-.86-.33-1.73.6-.39.41-.84.09-.88.12-.54.5-6.19,11.05-7.24,12.91,1.9,4.87,4.14,9.7,5.63,14.71,1.13,3.79,3.16,9.53-4.01,11.28-6.22,1.52-8.59-6.53-9.56-6.3-2.63,5.23-5.09,10.6-7.91,15.73-2.81,5.11-6.28,14.62-14.28,10.09-8.09-4.59-2.44-12.01.25-17.64,2.5-5.22,5.37-10.27,7.85-15.51-.34-.79-12.7,1.93-12.02-8.68.36-5.64,6.6-6.39,10.88-7.43,2.34-.56,10.68-1.24,12.08-2.27q3.52-6.12,7.05-12.24c.49-1.13-1.01-2.32-1.34-3.39,6.85-7.9,13.54-16.03,19.15-24.87-10.38,2.58-21.12.65-31.56,2.11-.54-2.8-10.27-1.09-15.07-1.7-3.73,3.05-6.84,6.73-10.39,9.98-2.66,2.43-5.91,7.5-11.47,4.37-8.69-4.89-.77-13.69-1.28-14.33-5.77-.49-11.57-.68-17.33-1.37-6.11-.73-15.92-.68-14.37-10.18,1.26-7.71,10.7-6.16,16.24-5.92,5.72.24,11.53,1.33,17.26,1.59-7.97-11.13,3.45-17.96,9.87-11.57,2.17,2.16,7.95,11.05,11.21,14.59,1.99.04,14.98,1.13,15.68.79.24-.12,1.33-2.43,2.04-3.4q14.44,2.43,28.88,4.85c-3.72-3.34-2.88-4.39-4.21-6.48-4.03-6.38-8.68-13.79-13.78-19.17.48-.88,1.21-1.45,1.73-2.29q-3.37-6.01-6.75-12.01c-4.61-1.38-9.78-2.04-14.34-3.42-1.75-.53-6.98-1.9-8-2.85-3.68-3.45-5.31-13.5,8.56-12.9.06,0,1.08.73,1.26.23-2.8-5.92-12.81-21.56-13.98-24.89-2.14-6.1,4.31-12.24,10.25-9.9,6.1,2.41,12.7,21.05,17.02,26.94q.34.09.67.19c.21-.29.2-1.2.23-1.26Z"/>
  <path class="cls-1" d="M179.18,110.84c-.2.95-.34,1.9-.67,2.82q3.45,6.15,6.91,12.3c2.35-1.58,7.92-.25,9.35,1.9.66,1,4.27,15.48,6.05,18.81,4.42-9.75,1.81-18.72,11.17-19.64-3.72,8.71-7.05,17.6-11.08,26.17q-.4.13-.8.26-6.86-12.89-13.73-25.78c-1.63-1.91-2.09-.56-2.84-1.04-1.07-5.34-8.81-10.4-4.36-15.8Z"/>
  <path class="cls-1" d="M239.23,174.2c-.87.98-2.1,3.88-5.67,4.31-.88.11-14.71-3.96-17.16-4.09,7.35,10.87,16.99,14.48,9.83,24.21q3.17,5.65,6.35,11.3c-.08-.02-1.26.66-1.67.37-2.17-4.72-8.2-10.72-5.6-12.66-4.31-9.15-9.73-17.89-14.94-26.6,6.58.36,13.83,1.2,20.6,2.17,2.97.42,5.23,1.82,8.27,1Z"/>
  <path class="cls-1" d="M241.58,158.95q-5.97-.41-11.94-.82c-6.12,1.28-13,.69-19.4,1.3q7.83-12.02,15.66-24.04.22-1.44.45-2.89c8.95,10.81-3.58,15.4-9.37,23.52,11.73-1.02,21.38-7.73,24.6,2.93Z"/>
  <path class="cls-1" d="M171.64,195.23c-.52-1.68-1.54-3.74-.71-5.62.46-1.05,11.58-12.84,13.73-15.43-8.17.05-21.66,9.01-25.42-1.71,10.44-1.46,21.18.47,31.56-2.11-5.61,8.84-12.29,16.97-19.15,24.87Z"/>
  <path class="cls-1" d="M172.53,134.52c5.1,5.38,9.75,12.79,13.78,19.17,1.32,2.09.49,3.14,4.21,6.48q-14.44-2.43-28.88-4.85c.17-.24.73-2.93,4.08-3.8.99-.25,17.17,4.58,19.78,5.07-2.63-5.04-14.67-13.25-14.62-18.32.02-2.19,1.55-3.56,1.66-3.75Z"/>
  <path class="cls-1" d="M198.94,176.51c.17-.16.57-.4.8-.26.2,2.24,1.15,3.77.81,6.13-.15,1.02-6.68,18.55-7.45,19.24-2.04,1.82-5.33,2-7.97,2.22.87-.93,1.67-.54,1.73-.6"/>
</svg>